<svg width="100" height="32" viewBox="0 0 100 32" fill="none" xmlns="http://www.w3.org/2000/svg">
<path d="M35.8635 31.5L3.99989 31.5C2.06689 31.5 0.49989 29.933 0.49989 28L0.499892 4C0.499892 2.067 2.06689 0.499997 3.99989 0.499998L35.8635 0.5L35.8635 31.5Z" stroke="#DEDEDE"/>
<path d="M13.3635 9C12.8331 9 12.3244 9.21071 11.9493 9.58579C11.5742 9.96086 11.3635 10.4696 11.3635 11L11.3635 13C11.3635 13.5304 11.5742 14.0391 11.9493 14.4142C12.3244 14.7893 12.8331 15 13.3635 15L15.3635 15C15.894 15 16.4027 14.7893 16.7777 14.4142C17.1528 14.0391 17.3635 13.5304 17.3635 13L17.3635 11C17.3635 10.4696 17.1528 9.96086 16.7777 9.58579C16.4027 9.21071 15.894 9 15.3635 9L13.3635 9ZM13.3635 17C12.8331 17 12.3244 17.2107 11.9493 17.5858C11.5742 17.9609 11.3635 18.4696 11.3635 19L11.3635 21C11.3635 21.5304 11.5742 22.0391 11.9493 22.4142C12.3244 22.7893 12.8331 23 13.3635 23L15.3635 23C15.894 23 16.4027 22.7893 16.7777 22.4142C17.1528 22.0391 17.3635 21.5304 17.3635 21L17.3635 19C17.3635 18.4696 17.1528 17.9609 16.7777 17.5858C16.4027 17.2107 15.894 17 15.3635 17L13.3635 17ZM19.3635 11C19.3635 10.4696 19.5742 9.96086 19.9493 9.58579C20.3244 9.21071 20.8331 9 21.3635 9L23.3635 9C23.894 9 24.4027 9.21071 24.7777 9.58579C25.1528 9.96086 25.3635 10.4696 25.3635 11L25.3635 13C25.3635 13.5304 25.1528 14.0391 24.7777 14.4142C24.4027 14.7893 23.894 15 23.3635 15L21.3635 15C20.8331 15 20.3244 14.7893 19.9493 14.4142C19.5742 14.0391 19.3635 13.5304 19.3635 13L19.3635 11ZM19.3635 19C19.3635 18.4696 19.5742 17.9609 19.9493 17.5858C20.3244 17.2107 20.8331 17 21.3635 17L23.3635 17C23.894 17 24.4027 17.2107 24.7777 17.5858C25.1528 17.9609 25.3635 18.4696 25.3635 19L25.3635 21C25.3635 21.5304 25.1528 22.0391 24.7777 22.4142C24.4027 22.7893 23.894 23 23.3635 23L21.3635 23C20.8331 23 20.3244 22.7893 19.9493 22.4142C19.5742 22.0391 19.3635 21.5304 19.3635 21L19.3635 19Z" fill="#DEDEDE"/>
<path d="M99.5 28C99.5 29.933 97.933 31.5 96 31.5L36.8636 31.5L36.8636 0.500001L96 0.500005C97.933 0.500006 99.5 2.06701 99.5 4.00001L99.5 28Z" fill="#F1F1F5"/>
<path d="M99.5 28C99.5 29.933 97.933 31.5 96 31.5L36.8636 31.5L36.8636 0.500001L96 0.500005C97.933 0.500006 99.5 2.06701 99.5 4.00001L99.5 28Z" stroke="#DEDEDE"/>
<path fill-rule="evenodd" clip-rule="evenodd" d="M61 22C61 22.2652 60.8946 22.5196 60.7071 22.7071C60.5196 22.8946 60.2652 23 60 23L48 23C47.7348 23 47.4804 22.8946 47.2929 22.7071C47.1054 22.5196 47 22.2652 47 22C47 21.7348 47.1054 21.4804 47.2929 21.2929C47.4804 21.1054 47.7348 21 48 21L60 21C60.2652 21 60.5196 21.1054 60.7071 21.2929C60.8946 21.4804 61 21.7348 61 22ZM61 18C61 18.2652 60.8946 18.5196 60.7071 18.7071C60.5196 18.8946 60.2652 19 60 19L48 19C47.7348 19 47.4804 18.8946 47.2929 18.7071C47.1054 18.5196 47 18.2652 47 18C47 17.7348 47.1054 17.4804 47.2929 17.2929C47.4804 17.1054 47.7348 17 48 17L60 17C60.2652 17 60.5196 17.1054 60.7071 17.2929C60.8946 17.4804 61 17.7348 61 18ZM61 14C61 14.2652 60.8946 14.5196 60.7071 14.7071C60.5196 14.8946 60.2652 15 60 15L48 15C47.7348 15 47.4804 14.8946 47.2929 14.7071C47.1054 14.5196 47 14.2652 47 14C47 13.7348 47.1054 13.4804 47.2929 13.2929C47.4804 13.1054 47.7348 13 48 13L60 13C60.2652 13 60.5196 13.1054 60.7071 13.2929C60.8946 13.4804 61 13.7348 61 14ZM61 10C61 10.2652 60.8946 10.5196 60.7071 10.7071C60.5196 10.8946 60.2652 11 60 11L48 11C47.7348 11 47.4804 10.8946 47.2929 10.7071C47.1054 10.5196 47 10.2652 47 10C47 9.73478 47.1054 9.48043 47.2929 9.29289C47.4804 9.10536 47.7348 9 48 9L60 9C60.2652 9 60.5196 9.10536 60.7071 9.29289C60.8946 9.48043 61 9.73478 61 10Z" fill="#696974"/>
<path d="M68.9988 21V10.8182L70.535 10.8182V19.6776L75.1486 19.6776V21L68.9988 21ZM77.2818 21V13.3636L78.7683 13.3636V21L77.2818 21ZM78.0325 12.1854C77.774 12.1854 77.5519 12.0992 77.3663 11.9268C77.184 11.7512 77.0929 11.5424 77.0929 11.3004C77.0929 11.0552 77.184 10.8464 77.3663 10.674C77.5519 10.4983 77.774 10.4105 78.0325 10.4105C78.291 10.4105 78.5114 10.4983 78.6937 10.674C78.8793 10.8464 78.9721 11.0552 78.9721 11.3004C78.9721 11.5424 78.8793 11.7512 78.6937 11.9268C78.5114 12.0992 78.291 12.1854 78.0325 12.1854ZM86.9904 15.228L85.6431 15.4666C85.5868 15.2943 85.4973 15.1302 85.3746 14.9744C85.2553 14.8187 85.0929 14.6911 84.8874 14.5916C84.6819 14.4922 84.4251 14.4425 84.1168 14.4425C83.6959 14.4425 83.3446 14.5369 83.0629 14.7259C82.7811 14.9115 82.6403 15.1518 82.6403 15.4467C82.6403 15.7019 82.7347 15.9074 82.9237 16.0632C83.1126 16.219 83.4175 16.3466 83.8384 16.446L85.0515 16.7244C85.7541 16.8868 86.2778 17.1371 86.6225 17.4751C86.9672 17.8132 87.1396 18.2524 87.1396 18.7926C87.1396 19.25 87.007 19.6577 86.7418 20.0156C86.48 20.3703 86.1138 20.6487 85.6431 20.8509C85.1758 21.053 84.6339 21.1541 84.0174 21.1541C83.1623 21.1541 82.4646 20.9718 81.9244 20.6072C81.3841 20.2393 81.0527 19.7173 80.93 19.0412L82.3668 18.8224C82.4563 19.197 82.6403 19.4804 82.9187 19.6726C83.1971 19.8615 83.56 19.956 84.0075 19.956C84.4947 19.956 84.8841 19.8549 85.1758 19.6527C85.4674 19.4472 85.6133 19.197 85.6133 18.902C85.6133 18.6634 85.5238 18.4628 85.3448 18.3004C85.1692 18.138 84.899 18.0154 84.5344 17.9325L83.2418 17.6491C82.5292 17.4867 82.0022 17.2282 81.6609 16.8736C81.3228 16.5189 81.1538 16.0698 81.1538 15.5263C81.1538 15.0755 81.2797 14.6811 81.5316 14.343C81.7835 14.005 82.1315 13.7415 82.5756 13.5526C83.0198 13.3603 83.5285 13.2642 84.1019 13.2642C84.9272 13.2642 85.5768 13.4432 86.0508 13.8011C86.5247 14.1558 86.838 14.6314 86.9904 15.228ZM92.8386 13.3636V14.5568L88.6674 14.5568V13.3636L92.8386 13.3636ZM89.786 11.5341L91.2726 11.5341V18.7578C91.2726 19.0462 91.3156 19.2633 91.4018 19.4091C91.488 19.5516 91.599 19.6494 91.7349 19.7024C91.8741 19.7521 92.0249 19.777 92.1873 19.777C92.3066 19.777 92.411 19.7687 92.5005 19.7521C92.59 19.7356 92.6596 19.7223 92.7093 19.7124L92.9778 20.9403C92.8916 20.9735 92.769 21.0066 92.6099 21.0398C92.4508 21.0762 92.252 21.0961 92.0133 21.0994C91.6222 21.1061 91.2576 21.0365 90.9196 20.8906C90.5815 20.7448 90.3081 20.5194 90.0993 20.2145C89.8904 19.9096 89.786 19.5268 89.786 19.0661V11.5341Z" fill="#171725"/>
</svg>
