<svg width="33" height="32" viewBox="0 0 33 32" fill="none" xmlns="http://www.w3.org/2000/svg">
<rect x="0.666504" width="32" height="32" rx="6" fill="#F9FAFD" fill-opacity="0.2"/>
<path fill-rule="evenodd" clip-rule="evenodd" d="M16.6665 21C15.5619 21 14.6665 21.8954 14.6665 23C14.6665 24.1046 15.5619 25 16.6665 25C17.7711 25 18.6665 24.1046 18.6665 23C18.6665 21.8954 17.7711 21 16.6665 21Z" fill="white"/>
<path fill-rule="evenodd" clip-rule="evenodd" d="M16.6665 14C15.5619 14 14.6665 14.8954 14.6665 16C14.6665 17.1046 15.5619 18 16.6665 18C17.7711 18 18.6665 17.1046 18.6665 16C18.6665 14.8954 17.7711 14 16.6665 14Z" fill="white"/>
<path fill-rule="evenodd" clip-rule="evenodd" d="M16.6665 7C15.5619 7 14.6665 7.89543 14.6665 9C14.6665 10.1046 15.5619 11 16.6665 11C17.7711 11 18.6665 10.1046 18.6665 9C18.6665 7.89543 17.7711 7 16.6665 7Z" fill="white"/>
</svg>
