<svg width="100" height="32" viewBox="0 0 100 32" fill="none" xmlns="http://www.w3.org/2000/svg">
<path d="M0.5 4C0.5 2.067 2.067 0.5 4 0.5L67.5 0.5V31.5L4 31.5C2.067 31.5 0.5 29.933 0.5 28L0.5 4Z" fill="#F1F1F5"/>
<path d="M0.5 4C0.5 2.067 2.067 0.5 4 0.5L67.5 0.5V31.5L4 31.5C2.067 31.5 0.5 29.933 0.5 28L0.5 4Z" stroke="#DEDEDE"/>
<path d="M11 9C10.4696 9 9.96086 9.21071 9.58579 9.58579C9.21071 9.96086 9 10.4696 9 11V13C9 13.5304 9.21071 14.0391 9.58579 14.4142C9.96086 14.7893 10.4696 15 11 15H13C13.5304 15 14.0391 14.7893 14.4142 14.4142C14.7893 14.0391 15 13.5304 15 13V11C15 10.4696 14.7893 9.96086 14.4142 9.58579C14.0391 9.21071 13.5304 9 13 9H11ZM11 17C10.4696 17 9.96086 17.2107 9.58579 17.5858C9.21071 17.9609 9 18.4696 9 19V21C9 21.5304 9.21071 22.0391 9.58579 22.4142C9.96086 22.7893 10.4696 23 11 23H13C13.5304 23 14.0391 22.7893 14.4142 22.4142C14.7893 22.0391 15 21.5304 15 21V19C15 18.4696 14.7893 17.9609 14.4142 17.5858C14.0391 17.2107 13.5304 17 13 17H11ZM17 11C17 10.4696 17.2107 9.96086 17.5858 9.58579C17.9609 9.21071 18.4696 9 19 9H21C21.5304 9 22.0391 9.21071 22.4142 9.58579C22.7893 9.96086 23 10.4696 23 11V13C23 13.5304 22.7893 14.0391 22.4142 14.4142C22.0391 14.7893 21.5304 15 21 15H19C18.4696 15 17.9609 14.7893 17.5858 14.4142C17.2107 14.0391 17 13.5304 17 13V11ZM17 19C17 18.4696 17.2107 17.9609 17.5858 17.5858C17.9609 17.2107 18.4696 17 19 17H21C21.5304 17 22.0391 17.2107 22.4142 17.5858C22.7893 17.9609 23 18.4696 23 19V21C23 21.5304 22.7893 22.0391 22.4142 22.4142C22.0391 22.7893 21.5304 23 21 23H19C18.4696 23 17.9609 22.7893 17.5858 22.4142C17.2107 22.0391 17 21.5304 17 21V19Z" fill="#696974"/>
<path d="M36.2045 14.0348C36.1084 13.7332 35.9792 13.4631 35.8168 13.2244C35.6577 12.9825 35.4671 12.777 35.245 12.608C35.023 12.4356 34.7694 12.3047 34.4844 12.2152C34.2027 12.1257 33.8928 12.081 33.5547 12.081C32.9813 12.081 32.4643 12.2285 32.0036 12.5234C31.5429 12.8184 31.1783 13.2509 30.9098 13.821C30.6446 14.3878 30.5121 15.0821 30.5121 15.9041C30.5121 16.7294 30.6463 17.4271 30.9148 17.9972C31.1832 18.5672 31.5511 18.9998 32.0185 19.2947C32.4858 19.5897 33.0178 19.7372 33.6143 19.7372C34.1679 19.7372 34.6501 19.6245 35.0611 19.3991C35.4754 19.1738 35.7952 18.8556 36.0206 18.4446C36.2493 18.0303 36.3636 17.5431 36.3636 16.983L36.7614 17.0575H33.848V15.7898H37.8501V16.9482C37.8501 17.8033 37.6679 18.5457 37.3033 19.1754C36.942 19.8018 36.4415 20.2857 35.8018 20.6271C35.1655 20.9685 34.4363 21.1392 33.6143 21.1392C32.6929 21.1392 31.8842 20.9271 31.1882 20.5028C30.4955 20.0786 29.9553 19.477 29.5675 18.6982C29.1797 17.916 28.9858 16.9879 28.9858 15.9141C28.9858 15.102 29.0985 14.3729 29.3239 13.7266C29.5492 13.0803 29.8658 12.5317 30.2734 12.081C30.6844 11.6269 31.1667 11.2805 31.7202 11.0419C32.277 10.8 32.8852 10.679 33.5447 10.679C34.0949 10.679 34.607 10.7602 35.081 10.9226C35.5582 11.085 35.9825 11.3153 36.3537 11.6136C36.7282 11.9119 37.0381 12.2666 37.2834 12.6776C37.5286 13.0852 37.6944 13.5376 37.7805 14.0348H36.2045ZM40.1809 21V13.3636H41.6177V14.5767H41.6973C41.8365 14.1657 42.0817 13.8426 42.4331 13.6072C42.7877 13.3686 43.1887 13.2493 43.6362 13.2493C43.729 13.2493 43.8384 13.2526 43.9643 13.2592C44.0936 13.2659 44.1947 13.2741 44.2676 13.2841V14.706C44.2079 14.6894 44.1019 14.6712 43.9494 14.6513C43.7969 14.6281 43.6445 14.6165 43.492 14.6165C43.1407 14.6165 42.8275 14.6911 42.5524 14.8402C42.2806 14.986 42.0652 15.1899 41.9061 15.4517C41.747 15.7102 41.6674 16.0052 41.6674 16.3366V21H40.1809ZM46.054 21V13.3636H47.5405V21H46.054ZM46.8047 12.1854C46.5462 12.1854 46.3241 12.0992 46.1385 11.9268C45.9562 11.7512 45.8651 11.5424 45.8651 11.3004C45.8651 11.0552 45.9562 10.8464 46.1385 10.674C46.3241 10.4983 46.5462 10.4105 46.8047 10.4105C47.0632 10.4105 47.2836 10.4983 47.4659 10.674C47.6515 10.8464 47.7443 11.0552 47.7443 11.3004C47.7443 11.5424 47.6515 11.7512 47.4659 11.9268C47.2836 12.0992 47.0632 12.1854 46.8047 12.1854ZM52.899 21.1491C52.2825 21.1491 51.7323 20.9917 51.2484 20.6768C50.7678 20.3587 50.39 19.9062 50.1149 19.3196C49.8431 18.7296 49.7072 18.022 49.7072 17.1967C49.7072 16.3714 49.8448 15.6655 50.1199 15.0788C50.3983 14.4922 50.7794 14.0431 51.2633 13.7315C51.7472 13.42 52.2958 13.2642 52.9089 13.2642C53.3829 13.2642 53.764 13.3438 54.0524 13.5028C54.344 13.6586 54.5694 13.8409 54.7285 14.0497C54.8909 14.2585 55.0169 14.4425 55.1064 14.6016H55.1958V10.8182H56.6824V21H55.2306V19.8118H55.1064C55.0169 19.9742 54.8876 20.1598 54.7186 20.3686C54.5529 20.5774 54.3242 20.7597 54.0325 20.9155C53.7408 21.0713 53.363 21.1491 52.899 21.1491ZM53.2271 19.8814C53.6547 19.8814 54.0159 19.7687 54.3109 19.5433C54.6092 19.3146 54.8346 18.9981 54.987 18.5938C55.1428 18.1894 55.2207 17.7187 55.2207 17.1818C55.2207 16.6515 55.1445 16.1875 54.992 15.7898C54.8395 15.392 54.6158 15.0821 54.3208 14.8601C54.0259 14.638 53.6613 14.527 53.2271 14.527C52.7797 14.527 52.4068 14.643 52.1085 14.875C51.8102 15.107 51.5848 15.4235 51.4324 15.8246C51.2832 16.2256 51.2086 16.678 51.2086 17.1818C51.2086 17.6922 51.2849 18.1513 51.4373 18.5589C51.5898 18.9666 51.8152 19.2898 52.1135 19.5284C52.4151 19.7637 52.7863 19.8814 53.2271 19.8814Z" fill="#696974"/>
<path d="M68.5 0.5L96 0.5C97.933 0.5 99.5 2.067 99.5 4V28C99.5 29.933 97.933 31.5 96 31.5H68.5V0.5Z" stroke="#DEDEDE"/>
<path fill-rule="evenodd" clip-rule="evenodd" d="M77 10C77 9.73478 77.1054 9.48043 77.2929 9.29289C77.4804 9.10536 77.7348 9 78 9H90C90.2652 9 90.5196 9.10536 90.7071 9.29289C90.8946 9.48043 91 9.73478 91 10C91 10.2652 90.8946 10.5196 90.7071 10.7071C90.5196 10.8946 90.2652 11 90 11H78C77.7348 11 77.4804 10.8946 77.2929 10.7071C77.1054 10.5196 77 10.2652 77 10ZM77 14C77 13.7348 77.1054 13.4804 77.2929 13.2929C77.4804 13.1054 77.7348 13 78 13H90C90.2652 13 90.5196 13.1054 90.7071 13.2929C90.8946 13.4804 91 13.7348 91 14C91 14.2652 90.8946 14.5196 90.7071 14.7071C90.5196 14.8946 90.2652 15 90 15H78C77.7348 15 77.4804 14.8946 77.2929 14.7071C77.1054 14.5196 77 14.2652 77 14ZM77 18C77 17.7348 77.1054 17.4804 77.2929 17.2929C77.4804 17.1054 77.7348 17 78 17H90C90.2652 17 90.5196 17.1054 90.7071 17.2929C90.8946 17.4804 91 17.7348 91 18C91 18.2652 90.8946 18.5196 90.7071 18.7071C90.5196 18.8946 90.2652 19 90 19H78C77.7348 19 77.4804 18.8946 77.2929 18.7071C77.1054 18.5196 77 18.2652 77 18ZM77 22C77 21.7348 77.1054 21.4804 77.2929 21.2929C77.4804 21.1054 77.7348 21 78 21H90C90.2652 21 90.5196 21.1054 90.7071 21.2929C90.8946 21.4804 91 21.7348 91 22C91 22.2652 90.8946 22.5196 90.7071 22.7071C90.5196 22.8946 90.2652 23 90 23H78C77.7348 23 77.4804 22.8946 77.2929 22.7071C77.1054 22.5196 77 22.2652 77 22Z" fill="#DEDEDE"/>
</svg>
